<svg fill="#000000" version="1.1" id="Layer_1" xmlns:x="&ns_extend;" xmlns:i="&ns_ai;" xmlns:graph="&ns_graphs;"
	 xmlns="http://www.w3.org/2000/svg" xmlns:xlink="http://www.w3.org/1999/xlink"  width="800px" height="800px"
	 viewBox="0 0 24 24" enable-background="new 0 0 24 24" xml:space="preserve">
<metadata>
	<sfw  xmlns="&ns_sfw;">
		<slices>

</slices>
		<sliceSourceBounds  width="505" height="984" bottomLeftOrigin="true" x="0" y="-120">

</sliceSourceBounds>
	</sfw>
</metadata>
<g>
	<g>
		<g>
			<path d="M19,2H5C4.4,2,4,1.6,4,1s0.4-1,1-1h14c0.6,0,1,0.4,1,1S19.6,2,19,2z"/>
		</g>
	</g>
	<g>
		<g>
			<path d="M19,24H5c-0.6,0-1-0.4-1-1s0.4-1,1-1h14c0.6,0,1,0.4,1,1S19.6,24,19,24z"/>
		</g>
	</g>
	<g>
		<g>
			<path d="M23,20c-0.6,0-1-0.4-1-1V5c0-0.6,0.4-1,1-1s1,0.4,1,1v14C24,19.6,23.6,20,23,20z"/>
		</g>
	</g>
	<g>
		<g>
			<path d="M1,20c-0.6,0-1-0.4-1-1V5c0-0.6,0.4-1,1-1s1,0.4,1,1v14C2,19.6,1.6,20,1,20z"/>
		</g>
	</g>
	<g>
		<g>
			<path d="M19,20H5c-0.6,0-1-0.4-1-1V5c0-0.6,0.4-1,1-1h14c0.6,0,1,0.4,1,1v14C20,19.6,19.6,20,19,20z M6,18h12V6H6V18z"/>
		</g>
	</g>
</g>
</svg>